<svg width="215" height="39" viewBox="0 0 215 39" fill="none" xmlns="http://www.w3.org/2000/svg">
<path d="M130.014 22.6204L134.429 27.0339L122.48 38.9825L110.534 27.0355L114.949 22.6204L122.482 30.1929L130.014 22.6204ZM137.549 15.0869L142 19.5004L137.588 23.9139L133.173 19.5004L137.549 15.0869ZM122.482 15.0869L126.896 19.4614L122.48 23.8765L118.067 19.5004L122.48 15.0885L122.482 15.0869ZM107.414 15.0869L111.791 19.5004L107.417 23.8749L103 19.5004L107.414 15.0869ZM122.484 0.0166626L134.431 11.9279L130.016 16.3398L122.482 8.80629L114.95 16.3788L110.535 11.9653L122.482 0.0182876L122.484 0.0166626Z" fill="#DC9E00"/>
<path d="M5.364 9.986C6.78 9.986 7.884 10.34 8.676 11.048C9.48 11.756 9.882 12.746 9.882 14.018C9.882 14.75 9.732 15.434 9.432 16.07C9.144 16.706 8.67 17.222 8.01 17.618C7.362 18.014 6.54 18.212 5.544 18.212H3.618V23H1.872V9.986H5.364ZM5.544 16.52C6.168 16.52 6.672 16.388 7.056 16.124C7.452 15.86 7.734 15.542 7.902 15.17C8.07 14.786 8.154 14.414 8.154 14.054C8.154 13.43 7.95 12.878 7.542 12.398C7.134 11.906 6.498 11.66 5.634 11.66H3.618V16.52H5.544ZM11.5151 19.202C11.5151 18.47 11.6891 17.804 12.0371 17.204C12.3971 16.592 12.8891 16.112 13.5131 15.764C14.1491 15.416 14.8631 15.242 15.6551 15.242C16.4471 15.242 17.1491 15.416 17.7611 15.764C18.3851 16.112 18.8651 16.586 19.2011 17.186C19.5491 17.786 19.7231 18.458 19.7231 19.202C19.7231 19.946 19.5491 20.624 19.2011 21.236C18.8651 21.836 18.3851 22.31 17.7611 22.658C17.1371 23.006 16.4231 23.18 15.6191 23.18C14.8391 23.18 14.1371 23.018 13.5131 22.694C12.8891 22.358 12.3971 21.89 12.0371 21.29C11.6891 20.69 11.5151 19.994 11.5151 19.202ZM13.2071 19.22C13.2071 19.688 13.3091 20.12 13.5131 20.516C13.7291 20.912 14.0171 21.224 14.3771 21.452C14.7491 21.68 15.1571 21.794 15.6011 21.794C16.2971 21.794 16.8731 21.548 17.3291 21.056C17.7851 20.564 18.0131 19.952 18.0131 19.22C18.0131 18.488 17.7851 17.876 17.3291 17.384C16.8731 16.88 16.2971 16.628 15.6011 16.628C15.1451 16.628 14.7371 16.748 14.3771 16.988C14.0171 17.216 13.7291 17.528 13.5131 17.924C13.3091 18.32 13.2071 18.752 13.2071 19.22ZM32.0932 15.548L28.6552 23.45L26.2612 18.338L24.0832 23.45L20.6272 15.548H22.2832L24.2812 20.066L25.6672 16.826L25.0732 15.548H26.5312L28.5472 20.174L30.4372 15.548H32.0932ZM37.2059 21.74C37.8299 21.74 38.4359 21.524 39.0239 21.092L39.7979 22.334C39.4019 22.598 38.9699 22.808 38.5019 22.964C38.0459 23.108 37.6019 23.18 37.1699 23.18C36.3419 23.18 35.6159 23.012 34.9919 22.676C34.3799 22.328 33.9059 21.854 33.5699 21.254C33.2339 20.654 33.0659 19.976 33.0659 19.22C33.0659 18.488 33.2459 17.822 33.6059 17.222C33.9779 16.61 34.4819 16.13 35.1179 15.782C35.7539 15.422 36.4499 15.242 37.2059 15.242C38.1779 15.242 38.9879 15.53 39.6359 16.106C40.2959 16.67 40.7459 17.462 40.9859 18.482L35.0819 20.552C35.2979 20.924 35.5859 21.218 35.9459 21.434C36.3179 21.638 36.7379 21.74 37.2059 21.74ZM37.0799 16.574C36.3959 16.574 35.8319 16.814 35.3879 17.294C34.9439 17.774 34.7219 18.386 34.7219 19.13C34.7219 19.31 34.7279 19.448 34.7399 19.544L39.0779 17.942C38.8979 17.534 38.6399 17.204 38.3039 16.952C37.9799 16.7 37.5719 16.574 37.0799 16.574ZM44.6854 17.312C44.8774 16.904 45.1474 16.544 45.4954 16.232C45.8554 15.92 46.2334 15.68 46.6294 15.512C47.0254 15.344 47.3734 15.254 47.6734 15.242L47.6014 16.916C47.0614 16.892 46.5694 17 46.1254 17.24C45.6934 17.48 45.3514 17.816 45.0994 18.248C44.8594 18.668 44.7394 19.118 44.7394 19.598V23H43.0654V15.548H44.5594L44.6854 17.312ZM53.0086 21.74C53.6326 21.74 54.2386 21.524 54.8266 21.092L55.6006 22.334C55.2046 22.598 54.7726 22.808 54.3046 22.964C53.8486 23.108 53.4046 23.18 52.9726 23.18C52.1446 23.18 51.4186 23.012 50.7946 22.676C50.1826 22.328 49.7086 21.854 49.3726 21.254C49.0366 20.654 48.8686 19.976 48.8686 19.22C48.8686 18.488 49.0486 17.822 49.4086 17.222C49.7806 16.61 50.2846 16.13 50.9206 15.782C51.5566 15.422 52.2526 15.242 53.0086 15.242C53.9806 15.242 54.7906 15.53 55.4386 16.106C56.0986 16.67 56.5486 17.462 56.7886 18.482L50.8846 20.552C51.1006 20.924 51.3886 21.218 51.7486 21.434C52.1206 21.638 52.5406 21.74 53.0086 21.74ZM52.8826 16.574C52.1986 16.574 51.6346 16.814 51.1906 17.294C50.7466 17.774 50.5246 18.386 50.5246 19.13C50.5246 19.31 50.5306 19.448 50.5426 19.544L54.8806 17.942C54.7006 17.534 54.4426 17.204 54.1066 16.952C53.7826 16.7 53.3746 16.574 52.8826 16.574ZM66.6442 9.05V23H64.9522V21.83C64.5922 22.25 64.1482 22.58 63.6202 22.82C63.1042 23.06 62.5342 23.18 61.9102 23.18C61.2142 23.18 60.5842 23.012 60.0202 22.676C59.4562 22.34 59.0122 21.872 58.6882 21.272C58.3762 20.66 58.2202 19.958 58.2202 19.166C58.2202 18.362 58.3882 17.666 58.7242 17.078C59.0602 16.478 59.5222 16.022 60.1102 15.71C60.6982 15.398 61.3642 15.242 62.1082 15.242C62.6722 15.242 63.2122 15.362 63.7282 15.602C64.2562 15.83 64.6702 16.148 64.9702 16.556V9.05H66.6442ZM62.4322 21.74C63.0802 21.74 63.6262 21.566 64.0702 21.218C64.5262 20.87 64.8202 20.402 64.9522 19.814V18.41C64.8082 17.87 64.5022 17.432 64.0342 17.096C63.5662 16.748 63.0322 16.574 62.4322 16.574C61.9762 16.574 61.5562 16.688 61.1722 16.916C60.7882 17.132 60.4822 17.438 60.2542 17.834C60.0262 18.218 59.9122 18.656 59.9122 19.148C59.9122 19.628 60.0262 20.066 60.2542 20.462C60.4822 20.858 60.7882 21.17 61.1722 21.398C61.5562 21.626 61.9762 21.74 62.4322 21.74ZM80.0034 15.242C80.6754 15.242 81.2874 15.404 81.8394 15.728C82.4034 16.052 82.8474 16.508 83.1714 17.096C83.4954 17.684 83.6574 18.368 83.6574 19.148C83.6574 19.964 83.4834 20.678 83.1354 21.29C82.7874 21.902 82.3134 22.37 81.7134 22.694C81.1254 23.018 80.4834 23.18 79.7874 23.18C79.1754 23.18 78.6174 23.06 78.1134 22.82C77.6214 22.58 77.2194 22.256 76.9074 21.848V23H75.2334V9.05H76.9074V16.538C77.2194 16.142 77.6454 15.83 78.1854 15.602C78.7374 15.362 79.3434 15.242 80.0034 15.242ZM79.4274 21.74C80.1594 21.74 80.7594 21.494 81.2274 21.002C81.7074 20.51 81.9474 19.892 81.9474 19.148C81.9474 18.668 81.8334 18.236 81.6054 17.852C81.3894 17.456 81.0894 17.144 80.7054 16.916C80.3214 16.688 79.8954 16.574 79.4274 16.574C78.8154 16.574 78.2754 16.742 77.8074 17.078C77.3514 17.402 77.0514 17.834 76.9074 18.374V19.886C77.0514 20.426 77.3514 20.87 77.8074 21.218C78.2634 21.566 78.8034 21.74 79.4274 21.74ZM92.9953 15.548L88.1893 26.582H86.5333L88.2433 22.748L84.7873 15.548H86.6773L89.0893 20.858L91.4473 15.548H92.9953ZM157.961 16.25C158.705 16.538 159.293 16.952 159.725 17.492C160.157 18.02 160.373 18.638 160.373 19.346C160.373 20.174 160.169 20.864 159.761 21.416C159.365 21.956 158.837 22.358 158.177 22.622C157.529 22.874 156.815 23 156.035 23H152.165V9.986H155.531C156.863 9.986 157.895 10.262 158.627 10.814C159.359 11.354 159.725 12.17 159.725 13.262C159.725 13.946 159.569 14.546 159.257 15.062C158.957 15.566 158.525 15.962 157.961 16.25ZM153.911 15.674H155.891C156.563 15.674 157.067 15.482 157.403 15.098C157.751 14.714 157.925 14.222 157.925 13.622C157.925 12.962 157.721 12.47 157.313 12.146C156.905 11.822 156.335 11.66 155.603 11.66H153.911V15.674ZM155.963 21.38C156.719 21.38 157.343 21.212 157.835 20.876C158.327 20.528 158.573 20.024 158.573 19.364C158.573 18.68 158.303 18.176 157.763 17.852C157.235 17.528 156.593 17.366 155.837 17.366H153.911V21.38H155.963ZM164.57 15.548V23H162.896V15.548H164.57ZM162.77 12.866C162.77 12.602 162.872 12.38 163.076 12.2C163.28 12.02 163.514 11.93 163.778 11.93C164.042 11.93 164.27 12.02 164.462 12.2C164.666 12.38 164.768 12.602 164.768 12.866C164.768 13.13 164.666 13.352 164.462 13.532C164.27 13.712 164.042 13.802 163.778 13.802C163.514 13.802 163.28 13.712 163.076 13.532C162.872 13.352 162.77 13.13 162.77 12.866ZM172.109 15.26C172.805 15.26 173.381 15.47 173.837 15.89C174.293 16.298 174.527 16.832 174.539 17.492V23H172.847V18.068C172.823 17.648 172.697 17.318 172.469 17.078C172.241 16.838 171.899 16.712 171.443 16.7C170.783 16.7 170.237 16.964 169.805 17.492C169.373 18.02 169.157 18.692 169.157 19.508V23H167.483V15.548H168.995L169.103 16.988C169.367 16.448 169.763 16.028 170.291 15.728C170.819 15.416 171.425 15.26 172.109 15.26ZM185.083 15.548V23H183.409V21.776C183.145 22.124 182.761 22.448 182.257 22.748C181.753 23.036 181.183 23.18 180.547 23.18C179.839 23.18 179.197 23.03 178.621 22.73C178.057 22.418 177.607 21.968 177.271 21.38C176.947 20.792 176.785 20.09 176.785 19.274C176.785 18.458 176.953 17.75 177.289 17.15C177.637 16.538 178.099 16.07 178.675 15.746C179.263 15.41 179.911 15.242 180.619 15.242C181.255 15.242 181.807 15.38 182.275 15.656C182.743 15.932 183.121 16.292 183.409 16.736L183.535 15.548H185.083ZM180.997 21.794C181.609 21.794 182.131 21.626 182.563 21.29C183.007 20.942 183.289 20.474 183.409 19.886V18.41C183.265 17.882 182.965 17.456 182.509 17.132C182.053 16.796 181.531 16.628 180.943 16.628C180.499 16.628 180.085 16.736 179.701 16.952C179.329 17.168 179.029 17.474 178.801 17.87C178.585 18.254 178.477 18.692 178.477 19.184C178.477 19.664 178.591 20.102 178.819 20.498C179.047 20.894 179.353 21.212 179.737 21.452C180.121 21.68 180.541 21.794 180.997 21.794ZM192.623 15.26C193.319 15.26 193.895 15.47 194.351 15.89C194.807 16.298 195.041 16.832 195.053 17.492V23H193.361V18.068C193.337 17.648 193.211 17.318 192.983 17.078C192.755 16.838 192.413 16.712 191.957 16.7C191.297 16.7 190.751 16.964 190.319 17.492C189.887 18.02 189.671 18.692 189.671 19.508V23H187.997V15.548H189.509L189.617 16.988C189.881 16.448 190.277 16.028 190.805 15.728C191.333 15.416 191.939 15.26 192.623 15.26ZM203.994 22.298C203.658 22.574 203.256 22.79 202.788 22.946C202.332 23.102 201.864 23.18 201.384 23.18C200.58 23.18 199.866 23.018 199.242 22.694C198.63 22.37 198.15 21.914 197.802 21.326C197.466 20.726 197.298 20.036 197.298 19.256C197.298 18.488 197.478 17.81 197.838 17.222C198.198 16.622 198.678 16.16 199.278 15.836C199.878 15.512 200.526 15.35 201.222 15.35C202.362 15.35 203.304 15.662 204.048 16.286L203.202 17.384C202.962 17.204 202.686 17.054 202.374 16.934C202.062 16.802 201.726 16.736 201.366 16.736C200.922 16.736 200.514 16.85 200.142 17.078C199.782 17.294 199.494 17.594 199.278 17.978C199.074 18.362 198.972 18.788 198.972 19.256C198.972 19.724 199.08 20.15 199.296 20.534C199.524 20.918 199.83 21.224 200.214 21.452C200.598 21.68 201.036 21.794 201.528 21.794C202.14 21.794 202.674 21.614 203.13 21.254L203.994 22.298ZM209.647 21.74C210.271 21.74 210.877 21.524 211.465 21.092L212.239 22.334C211.843 22.598 211.411 22.808 210.943 22.964C210.487 23.108 210.043 23.18 209.611 23.18C208.783 23.18 208.057 23.012 207.433 22.676C206.821 22.328 206.347 21.854 206.011 21.254C205.675 20.654 205.507 19.976 205.507 19.22C205.507 18.488 205.687 17.822 206.047 17.222C206.419 16.61 206.923 16.13 207.559 15.782C208.195 15.422 208.891 15.242 209.647 15.242C210.619 15.242 211.429 15.53 212.077 16.106C212.737 16.67 213.187 17.462 213.427 18.482L207.523 20.552C207.739 20.924 208.027 21.218 208.387 21.434C208.759 21.638 209.179 21.74 209.647 21.74ZM209.521 16.574C208.837 16.574 208.273 16.814 207.829 17.294C207.385 17.774 207.163 18.386 207.163 19.13C207.163 19.31 207.169 19.448 207.181 19.544L211.519 17.942C211.339 17.534 211.081 17.204 210.745 16.952C210.421 16.7 210.013 16.574 209.521 16.574Z" fill="white"/>
</svg>
