<svg width="134" height="36" viewBox="0 0 134 36" fill="none" xmlns="http://www.w3.org/2000/svg">
<g filter="url(#filter0_d)">
<rect x="7" y="7" width="120" height="22" rx="11" fill="url(#paint0_radial)"/>
<rect x="7" y="8.5" width="120" height="20" rx="10" fill="url(#paint1_radial)"/>
<path d="M31.2135 14.64C31.9802 14.64 32.5902 14.7967 33.0435 15.11C33.4968 15.4167 33.7235 15.8767 33.7235 16.49C33.7235 16.8633 33.6435 17.1867 33.4835 17.46C33.3302 17.7333 33.1168 17.9533 32.8435 18.12C33.2235 18.3 33.5235 18.5367 33.7435 18.83C33.9635 19.1167 34.0735 19.45 34.0735 19.83C34.0735 20.23 34.0002 20.57 33.8535 20.85C33.7135 21.1233 33.5202 21.3467 33.2735 21.52C33.0335 21.6867 32.7602 21.81 32.4535 21.89C32.1468 21.9633 31.8302 22 31.5035 22H29.0535V14.64H31.2135ZM31.3835 17.65C31.6702 17.65 31.8802 17.5633 32.0135 17.39C32.1535 17.2167 32.2235 17.02 32.2235 16.8C32.2235 16.5467 32.1368 16.3567 31.9635 16.23C31.7968 16.1033 31.5702 16.04 31.2835 16.04H30.5035V17.65H31.3835ZM31.4335 20.65C31.7535 20.65 32.0235 20.5867 32.2435 20.46C32.4635 20.3267 32.5735 20.1167 32.5735 19.83C32.5735 19.6167 32.5135 19.4567 32.3935 19.35C32.2735 19.2367 32.1168 19.16 31.9235 19.12C31.7368 19.0733 31.5402 19.05 31.3335 19.05H30.5035V20.65H31.4335ZM37.8281 19.28C37.8281 19.5133 37.8981 19.7367 38.0381 19.95C38.1781 20.1633 38.3615 20.3367 38.5881 20.47C38.8215 20.6033 39.0748 20.67 39.3481 20.67C39.6481 20.67 39.9148 20.6033 40.1481 20.47C40.3815 20.3367 40.5648 20.1633 40.6981 19.95C40.8381 19.7367 40.9081 19.5133 40.9081 19.28V14.64H42.3381V19.31C42.3381 19.85 42.2048 20.33 41.9381 20.75C41.6715 21.1633 41.3115 21.49 40.8581 21.73C40.4048 21.9633 39.9015 22.08 39.3481 22.08C38.8015 22.08 38.3015 21.9633 37.8481 21.73C37.4015 21.49 37.0448 21.1633 36.7781 20.75C36.5115 20.33 36.3781 19.85 36.3781 19.31V14.64H37.8281V19.28ZM46.9967 19.71L44.2867 14.64H46.0767L47.7667 18.04L49.4167 14.64H51.2067L48.4467 19.71V22H46.9967V19.71ZM59.6555 20.45C59.6555 21.09 59.5288 21.6367 59.2755 22.09C59.0221 22.5433 58.6688 22.89 58.2155 23.13C57.7688 23.3767 57.2488 23.51 56.6555 23.53V22.12C57.1088 22.0933 57.4788 21.9533 57.7655 21.7C58.0521 21.4467 58.1955 21.02 58.1955 20.42V14.64H59.6555V20.45ZM62.5594 14.64H67.5794V16.04H64.0094V17.61H67.1694V19.01H64.0094V20.6H67.7194V22H62.5594V14.64ZM70.2195 22V14.64H72.4195C73.1595 14.64 73.7895 14.75 74.3095 14.97C74.8295 15.19 75.2462 15.4833 75.5595 15.85C75.8795 16.2167 76.1129 16.6267 76.2595 17.08C76.4062 17.5333 76.4795 17.99 76.4795 18.45C76.4795 18.9967 76.3795 19.49 76.1795 19.93C75.9862 20.3633 75.7195 20.7367 75.3795 21.05C75.0395 21.3567 74.6462 21.5933 74.1995 21.76C73.7529 21.92 73.2795 22 72.7795 22H70.2195ZM71.6695 20.6H72.5295C73.2629 20.6 73.8529 20.41 74.2995 20.03C74.7529 19.65 74.9795 19.09 74.9795 18.35C74.9795 17.87 74.8995 17.48 74.7395 17.18C74.5862 16.8733 74.3929 16.6367 74.1595 16.47C73.9329 16.3033 73.6995 16.19 73.4595 16.13C73.2195 16.0633 73.0162 16.03 72.8495 16.03H71.6695V20.6ZM82.8644 16.42C82.5844 16.2667 82.2977 16.14 82.0044 16.04C81.7177 15.94 81.4477 15.89 81.1944 15.89C80.881 15.89 80.6344 15.9533 80.4544 16.08C80.2744 16.2067 80.1844 16.3967 80.1844 16.65C80.1844 16.8233 80.251 16.98 80.3844 17.12C80.5244 17.2533 80.701 17.3733 80.9144 17.48C81.1344 17.5867 81.361 17.6833 81.5944 17.77C81.881 17.8767 82.1577 18.0133 82.4244 18.18C82.691 18.34 82.911 18.5633 83.0844 18.85C83.2577 19.13 83.3444 19.5033 83.3444 19.97C83.3444 20.3433 83.2477 20.69 83.0544 21.01C82.861 21.33 82.5777 21.59 82.2044 21.79C81.831 21.9833 81.371 22.08 80.8244 22.08C80.4044 22.08 79.9744 22.0167 79.5344 21.89C79.101 21.7633 78.691 21.5633 78.3044 21.29L78.9444 20.16C79.1977 20.3467 79.4877 20.5 79.8144 20.62C80.141 20.74 80.4344 20.8 80.6944 20.8C80.8677 20.8 81.041 20.7767 81.2144 20.73C81.3944 20.6767 81.541 20.59 81.6544 20.47C81.7744 20.35 81.8344 20.1833 81.8344 19.97C81.8344 19.75 81.7277 19.56 81.5144 19.4C81.3077 19.2333 81.0577 19.0933 80.7644 18.98C80.5377 18.8933 80.3044 18.7933 80.0644 18.68C79.8244 18.5667 79.5977 18.43 79.3844 18.27C79.1777 18.1033 79.0077 17.9 78.8744 17.66C78.7477 17.4133 78.6844 17.1133 78.6844 16.76C78.6844 16.3333 78.7777 15.9633 78.9644 15.65C79.1577 15.3367 79.4277 15.09 79.7744 14.91C80.121 14.7233 80.521 14.62 80.9744 14.6C81.5677 14.6 82.0477 14.67 82.4144 14.81C82.7877 14.95 83.121 15.1167 83.4144 15.31L82.8644 16.42ZM85.2645 14.64H90.2245V16.04H88.4345V22H86.9845V16.04H85.2645V14.64ZM91.1981 22L94.5181 14.35H94.5981L97.9181 22H96.2381L95.6681 20.56H93.2281L92.6281 22H91.1981ZM93.7381 19.34H95.1881L94.4781 17.55L93.7381 19.34ZM102.221 14.64C103.148 14.64 103.858 14.8667 104.351 15.32C104.851 15.7667 105.101 16.3667 105.101 17.12C105.101 17.54 105.011 17.9533 104.831 18.36C104.658 18.7667 104.361 19.09 103.941 19.33L105.651 22H103.961L102.411 19.66H101.441V22H99.991V14.64H102.221ZM102.471 18.26C102.764 18.26 102.991 18.2 103.151 18.08C103.318 17.9533 103.434 17.8067 103.501 17.64C103.568 17.4667 103.601 17.31 103.601 17.17C103.601 17.09 103.588 16.99 103.561 16.87C103.541 16.7433 103.494 16.6167 103.421 16.49C103.348 16.3633 103.234 16.2567 103.081 16.17C102.934 16.0833 102.734 16.04 102.481 16.04H101.441V18.26H102.471Z" fill="white"/>
</g>
<defs>
<filter id="filter0_d" x="0.616814" y="0.616814" width="132.766" height="34.7664" filterUnits="userSpaceOnUse" color-interpolation-filters="sRGB">
<feFlood flood-opacity="0" result="BackgroundImageFix"/>
<feColorMatrix in="SourceAlpha" type="matrix" values="0 0 0 0 0 0 0 0 0 0 0 0 0 0 0 0 0 0 127 0" result="hardAlpha"/>
<feOffset/>
<feGaussianBlur stdDeviation="3.19159"/>
<feComposite in2="hardAlpha" operator="out"/>
<feColorMatrix type="matrix" values="0 0 0 0 0.834391 0 0 0 0 0.940381 0 0 0 0 1 0 0 0 0.3 0"/>
<feBlend mode="normal" in2="BackgroundImageFix" result="effect1_dropShadow"/>
<feBlend mode="normal" in="SourceGraphic" in2="effect1_dropShadow" result="shape"/>
</filter>
<radialGradient id="paint0_radial" cx="0" cy="0" r="1" gradientUnits="userSpaceOnUse" gradientTransform="translate(15.4782 11.125) rotate(46.5105) scale(74.8621 429.859)">
<stop stop-color="#1C84FE"/>
<stop offset="1" stop-color="#BD4BC8"/>
</radialGradient>
<radialGradient id="paint1_radial" cx="0" cy="0" r="1" gradientUnits="userSpaceOnUse" gradientTransform="translate(15.4782 12.25) rotate(43.7811) scale(71.3609 409.954)">
<stop stop-color="#1C84FE"/>
<stop offset="1" stop-color="#BD4BC8"/>
</radialGradient>
</defs>
</svg>
